<svg width="23" height="23" viewBox="0 0 23 23" fill="none" xmlns="http://www.w3.org/2000/svg">
<path d="M11.0682 2V7.61364H2V5.23864C2 4.3797 2.34121 3.55594 2.94857 2.94857C3.55594 2.34121 4.3797 2 5.23864 2H11.0682ZM12.3636 2V13.6591H21V5.23864C21 4.3797 20.6588 3.55594 20.0514 2.94857C19.4441 2.34121 18.6203 2 17.7614 2H12.3636ZM21 14.9545H12.3636V21H17.7614C18.6203 21 19.4441 20.6588 20.0514 20.0514C20.6588 19.4441 21 18.6203 21 17.7614V14.9545ZM11.0682 21V8.90909H2V17.7614C2 18.6203 2.34121 19.4441 2.94857 20.0514C3.55594 20.6588 4.3797 21 5.23864 21H11.0682Z" fill="#5F8D29"/>
</svg>
