<svg width="205" height="140" viewBox="0 0 205 140" fill="none" xmlns="http://www.w3.org/2000/svg">
<g id="Button/Card/QuickAction" filter="url(#filter0_d_0_1)">
<g clip-path="url(#clip0_0_1)">
<path d="M14.8584 34.9805C14.8584 23.9348 23.8127 14.9805 34.8584 14.9805H169.858C180.904 14.9805 189.858 23.9348 189.858 34.9805V104.98C189.858 116.026 180.904 124.98 169.858 124.98H34.8584C23.8127 124.98 14.8584 116.026 14.8584 104.98V34.9805Z" fill="#F6FBF1"/>
<g id="Frame 21409" filter="url(#filter1_d_0_1)">
<path d="M14.8584 34.9805C14.8584 23.9348 23.8127 14.9805 34.8584 14.9805H169.858C180.904 14.9805 189.858 23.9348 189.858 34.9805V104.98C189.858 116.026 180.904 124.98 169.858 124.98H34.8584C23.8127 124.98 14.8584 116.026 14.8584 104.98V34.9805Z" fill="#F6FBF1" shape-rendering="crispEdges"/>
</g>
<g id="Character">
<g id="Group 594">
<g id="character">
<g id="Body_2">
<path id="Vector 65" d="M113.938 126.526C110.39 122.97 105.015 104.666 108.506 107.595C111.997 110.523 128.234 111.258 137.864 110.415C147.494 109.571 165.449 105.303 166.773 101.953C168.097 98.6026 165.549 118.772 163.156 122.216C160.764 125.66 159.805 125.893 157.158 127.593C154.511 129.293 145.112 131.192 142.413 131.58C139.714 131.967 138.183 132.102 135.458 132.189C132.733 132.276 122.953 132.069 120.244 130.826C117.535 129.582 117.485 130.082 113.938 126.526Z" fill="#FEF7E7"/>
<path id="Vector 84" d="M119.853 130.943C117.798 130.064 117.154 129.751 113.938 126.527C112.298 124.883 110.267 120.088 108.903 115.696" stroke="#E2CBA7" stroke-width="0.6"/>
<path id="Vector 84_2" d="M157.786 127.17C159.942 126.081 160.964 125.373 163.157 122.216C164.263 120.623 165.404 115.448 166.178 110.68" stroke="#E2CBA7" stroke-width="0.6"/>
</g>
<g id="scarf">
<path id="Vector 84_3" d="M107.383 108.176C107.443 107.29 107.786 106.991 108.506 107.595C111.997 110.524 128.234 111.258 137.864 110.415C147.493 109.572 165.449 105.304 166.773 101.954C167.082 101.17 167.18 101.672 167.118 102.945" stroke="#E2CBA7" stroke-width="0.6"/>
<path id="Vector 71" d="M101.031 106.998C101.978 106.502 102.996 106.204 103.659 106.228C104.321 106.253 105.31 106.623 105.31 106.623C105.31 106.623 106.213 108.19 106.08 109.251C105.946 110.312 104.312 111.787 102.569 112.254C100.826 112.72 97.7926 111.594 97.6136 111.07C97.4346 110.547 100.083 107.493 101.031 106.998Z" fill="#EBECD6" stroke="#B3B87B" stroke-width="0.4"/>
<path id="Vector 72" d="M99.3934 106.601C100.343 107.093 101.9 106.869 102.563 106.842C103.226 106.815 104.213 106.441 104.213 106.441C104.213 106.441 105.11 104.87 104.971 103.81C104.833 102.749 103.343 101.477 101.599 101.017C99.854 100.558 96.4581 102.214 96.3427 102.556C96.2273 102.897 98.4438 106.109 99.3934 106.601Z" fill="#EBECD6" stroke="#B3B87B" stroke-width="0.4"/>
<path id="Ellipse 59" d="M105.202 105.216C105.568 105.184 105.932 105.351 106.224 105.677C106.517 106.004 106.729 106.482 106.777 107.034C106.826 107.585 106.7 108.092 106.468 108.464C106.237 108.837 105.908 109.065 105.542 109.097C105.175 109.13 104.811 108.962 104.518 108.635C104.225 108.309 104.014 107.832 103.966 107.28C103.918 106.728 104.042 106.221 104.274 105.848C104.505 105.476 104.835 105.248 105.202 105.216Z" fill="#EBECD6" stroke="#B3B87B" stroke-width="0.4"/>
<path id="Vector 70" d="M167.57 103.327C167.6 103.956 148.599 120.622 138.483 121.508C128.367 122.394 105.878 108.831 106.001 108.18C106.124 107.528 106.09 107.7 106.49 107.059C106.889 106.417 110.168 112.128 137.452 109.738C164.737 107.349 167.182 101.125 167.478 101.718C167.774 102.312 167.541 102.699 167.57 103.327Z" fill="#EBECD6" stroke="#B3B87B" stroke-width="0.4"/>
<path id="Vector 94" d="M105.679 107.875L99.6337 108.404M105.835 109.662L98.094 110.34M104.612 111.119L98.6406 111.642M102.004 101.894L96.7721 102.352M102.121 103.235L97.064 103.677M102.685 104.536L97.9003 104.955M103.249 105.837L99.2287 106.189L98.8265 101.596M100.585 101.118L101.563 112.287M102.16 103.681L102.877 111.869M99.4634 108.869L99.7373 111.996M104.707 107.06L105.033 110.78" stroke="#B3B87B" stroke-opacity="0.3" stroke-width="0.6" stroke-linecap="round"/>
<path id="Vector 95" d="M110.342 109.717L110.459 111.057M113.101 110.376L113.296 112.609M116.753 110.956L117.066 114.53M120.366 111.09L120.835 116.451M123.979 111.224L124.565 117.925M127.592 111.357L128.296 119.399M131.166 111.045L132.003 120.603M134.739 110.732L135.661 121.26M138.313 110.419L139.266 121.301M141.887 110.106L142.787 120.381M145.461 109.793L146.243 118.727M148.996 109.033L149.685 116.906M152.53 108.273L153.095 114.722M156.065 107.514L156.496 112.428M159.561 106.307L159.874 109.881M163.056 105.101L163.23 107.08M165.619 103.526L165.744 104.946" stroke="#B3B87B" stroke-opacity="0.3" stroke-width="0.6" stroke-linecap="round"/>
<path id="Vector 96" d="M110.944 111.465L163.659 106.849M115.646 113.754L159.971 109.873M119.902 116.082L155.64 112.953M125.497 118.293L150.961 116.063M131.093 120.504L144.941 119.292" stroke="#B3B87B" stroke-opacity="0.3" stroke-width="0.6" stroke-linecap="round"/>
</g>
<g id="head">
<path id="Rectangle 104" d="M111.112 69.6305C117.76 63.624 123.914 61.4704 132.972 60.7082C142.03 59.9459 148.387 60.5674 156.051 65.6955C163.714 70.8236 172.885 91.7146 169.749 98.9975C166.614 106.28 150.496 109.205 137.329 110.462C124.163 111.718 106.211 112.109 102.831 104.318C99.4512 96.5278 104.464 75.6371 111.112 69.6305Z" fill="#FEF7E7"/>
<path id="Rectangle 103" d="M101.574 96.9806C101.664 99.3515 102.142 102.736 102.829 104.319C106.209 112.109 124.162 111.719 137.328 110.462C150.494 109.206 166.612 106.281 169.747 98.998C170.459 97.3458 170.279 93.2586 169.885 90.5486" stroke="#E2CBA7" stroke-width="0.6"/>
<path id="Rectangle 103_2" d="M111.11 69.6315C117.757 63.6249 123.912 61.4713 132.97 60.7091C142.028 59.9469 148.385 60.5683 156.048 65.6964" stroke="#E2CBA7" stroke-width="0.6"/>
</g>
<g id="left-ear">
<path id="Vector 82" d="M106.808 70.7688C109.808 69.1119 112.669 68.9543 112.111 69.7657C111.553 70.577 108.674 79.7697 108.514 84.0964C108.354 88.4232 107.976 91.9145 105.124 94.6359C102.273 97.3574 99.1585 97.7603 96.0765 95.9678C92.9945 94.1754 91.8164 90.411 92.5583 86.5723C93.3002 82.7336 103.808 72.4258 106.808 70.7688Z" fill="#F9E8CE"/>
<path id="Vector 80" d="M112.109 69.7667C112.666 68.9553 109.806 69.1128 106.805 70.7698C103.805 72.4268 93.2978 82.7346 92.5558 86.5733C91.8139 90.412 92.9921 94.1764 96.074 95.9688C99.156 97.7613 102.27 97.3584 105.122 94.6369C107.973 91.9154 109.19 82.1703 109.35 77.8436" stroke="#E2CBA7" stroke-width="0.6"/>
</g>
<g id="right-ear">
<path id="Vector 83" d="M160.465 65.856C157.223 64.7457 154.378 65.0878 155.069 65.7898C155.759 66.4919 160.192 75.0443 161.102 79.2773C162.012 83.5103 162.991 86.8828 166.272 89.0673C169.553 91.2517 172.69 91.1072 175.413 88.8063C178.137 86.5055 178.643 82.5937 177.245 78.9423C175.847 75.291 163.708 66.9663 160.465 65.856Z" fill="#F9E8CE"/>
<path id="Vector 81" d="M155.066 65.7901C154.376 65.088 157.221 64.7459 160.463 65.8562C163.705 66.9666 175.845 75.2913 177.243 78.9426C178.64 82.5939 178.134 86.5057 175.411 88.8066C172.687 91.1074 169.55 91.252 166.269 89.0675C162.988 86.883 160.859 78.9954 159.949 74.7624" stroke="#E2CBA7" stroke-width="0.6"/>
</g>
<g id="hat">
<path id="Vector 45" d="M158.886 62.3645C159.102 62.4115 159.239 62.6245 159.192 62.8404C159.145 63.0562 158.932 63.1932 158.716 63.1462L158.801 62.7554L158.886 62.3645ZM137.505 55.92C137.306 55.8252 137.221 55.5866 137.316 55.3871C137.411 55.1875 137.649 55.1026 137.849 55.1974L137.677 55.5587L137.505 55.92ZM158.801 62.7554L158.716 63.1462C153.178 61.9417 147.876 60.1351 143.962 58.6314C142.004 57.8793 140.392 57.2022 139.268 56.7128C138.706 56.4681 138.266 56.2703 137.967 56.1335C137.817 56.0651 137.702 56.0119 137.624 55.9758C137.585 55.9577 137.556 55.9438 137.536 55.9345C137.526 55.9298 137.519 55.9262 137.513 55.9238C137.511 55.9226 137.509 55.9217 137.508 55.921C137.507 55.9207 137.506 55.9205 137.506 55.9203C137.506 55.9202 137.506 55.9202 137.506 55.9201C137.506 55.9201 137.505 55.92 137.677 55.5587C137.849 55.1974 137.849 55.1974 137.849 55.1975C137.849 55.1975 137.849 55.1975 137.849 55.1976C137.849 55.1977 137.85 55.1979 137.85 55.1982C137.851 55.1987 137.853 55.1995 137.855 55.2006C137.86 55.2028 137.867 55.2062 137.877 55.2107C137.896 55.2196 137.924 55.233 137.962 55.2507C138.038 55.286 138.151 55.3382 138.299 55.4057C138.595 55.5408 139.03 55.7366 139.587 55.9793C140.702 56.4648 142.304 57.1373 144.249 57.8846C148.141 59.38 153.401 61.1717 158.886 62.3645L158.801 62.7554Z" fill="#B3B87B"/>
<path id="Subtract" d="M151.963 48.7191C150.123 48.121 147.098 48.2896 145.39 48.4531C144.566 48.5321 143.818 48.9484 143.281 49.5799L137.905 55.9161C135.446 55.0802 130.018 53.5822 127.058 55.437C123.15 57.8855 133.003 63.3914 143.278 67.9267C153.553 72.4619 170.526 73.5711 168.277 69.3264C166.038 65.1028 158.914 62.9302 158.842 62.9084L158.319 62.8009L158.102 54.5435C158.081 53.7115 157.757 52.9147 157.155 52.3404C155.954 51.196 153.783 49.3107 151.963 48.7191ZM166.157 70.2352C166.265 70.2116 166.372 70.2798 166.396 70.3874C166.42 70.4951 166.352 70.6026 166.244 70.6265C163.687 71.1878 161.539 71.1418 160.028 70.955C159.272 70.8616 158.676 70.7333 158.267 70.6275C158.063 70.5746 157.905 70.5271 157.798 70.4929C157.744 70.4759 157.703 70.4611 157.675 70.4514C157.661 70.4466 157.65 70.443 157.643 70.4403C157.639 70.439 157.636 70.4383 157.634 70.4375C157.633 70.4372 157.632 70.4365 157.631 70.4363L157.63 70.4362C157.527 70.3972 157.475 70.2816 157.514 70.1783C157.552 70.075 157.668 70.0226 157.771 70.0615L157.773 70.0617C157.775 70.0621 157.776 70.0632 157.779 70.0642C157.785 70.0663 157.795 70.0695 157.807 70.0739C157.832 70.0825 157.87 70.0955 157.92 70.1114C158.02 70.1435 158.17 70.1889 158.367 70.2399C158.761 70.3418 159.34 70.4674 160.077 70.5585C161.549 70.7406 163.651 70.7853 166.157 70.2352ZM160.604 65.9532C160.689 65.8839 160.815 65.8968 160.885 65.9819C160.954 66.0673 160.941 66.1927 160.856 66.2626C160.468 66.5811 159.967 66.7834 159.448 66.9099C158.927 67.0368 158.374 67.0913 157.873 67.109C157.371 67.1266 156.915 67.107 156.585 67.0831C156.42 67.0712 156.285 67.0575 156.192 67.0473C156.146 67.0423 156.109 67.0388 156.084 67.0357L156.045 67.0299C155.936 67.0147 155.859 66.9142 155.874 66.805C155.889 66.6959 155.989 66.6193 156.098 66.6338L156.133 66.6382C156.156 66.6411 156.191 66.6454 156.235 66.6502C156.324 66.6599 156.454 66.672 156.614 66.6836C156.934 66.7068 157.375 66.7262 157.859 66.7092C158.344 66.6921 158.868 66.6393 159.354 66.5209C159.841 66.402 160.279 66.2195 160.604 65.9532ZM128.63 57.1561C128.711 57.081 128.838 57.0864 128.913 57.1674L128.915 57.1685C128.917 57.1702 128.919 57.1729 128.922 57.1761C128.929 57.1831 128.939 57.1944 128.953 57.2085C128.98 57.2369 129.023 57.2792 129.078 57.3348C129.19 57.446 129.358 57.6096 129.584 57.8164C130.037 58.2304 130.72 58.8189 131.638 59.5123C133.473 60.899 136.247 62.7064 139.997 64.3808C140.098 64.4258 140.143 64.5442 140.098 64.645C140.053 64.7456 139.935 64.7914 139.834 64.7465C136.053 63.0582 133.253 61.2338 131.397 59.8309C130.468 59.1296 129.775 58.5335 129.314 58.1116C129.084 57.9009 128.911 57.7329 128.795 57.6179C128.738 57.5605 128.693 57.5165 128.664 57.4863C128.65 57.4712 128.64 57.4586 128.632 57.4507C128.629 57.4468 128.624 57.444 128.622 57.4419C128.622 57.441 128.621 57.4403 128.621 57.4398L128.621 57.4388L128.62 57.4387C128.545 57.3578 128.549 57.2312 128.63 57.1561ZM160.105 65.0562C160.211 65.0257 160.321 65.0875 160.352 65.1934C160.382 65.2993 160.321 65.4102 160.215 65.4409C158.497 65.939 156.831 65.9406 155.599 65.8192C154.982 65.7584 154.471 65.6663 154.114 65.5895C153.936 65.5511 153.796 65.516 153.7 65.4908C153.652 65.4781 153.613 65.4683 153.588 65.4611C153.576 65.4576 153.566 65.4543 153.56 65.4524C153.557 65.4515 153.554 65.4502 153.552 65.4497L153.549 65.4494C153.443 65.4172 153.384 65.3054 153.416 65.1997C153.448 65.0942 153.56 65.0352 153.665 65.0673L153.667 65.0675C153.668 65.0679 153.671 65.0684 153.673 65.0691C153.678 65.0707 153.687 65.0733 153.699 65.0765C153.721 65.083 153.756 65.0924 153.801 65.1043C153.892 65.1281 154.026 65.1613 154.198 65.1983C154.543 65.2725 155.039 65.3617 155.639 65.4208C156.84 65.5391 158.451 65.5358 160.105 65.0562ZM132.486 58.4791C132.556 58.3938 132.682 58.381 132.767 58.4509L132.767 58.4519L132.769 58.453L132.807 58.4843C132.834 58.506 132.875 58.5373 132.926 58.5784C133.03 58.661 133.18 58.7814 133.37 58.9273C133.748 59.2194 134.281 59.618 134.89 60.0447C136.115 60.9017 137.638 61.8595 138.877 62.302C138.98 62.3393 139.035 62.4536 138.998 62.5573C138.961 62.6609 138.845 62.7151 138.742 62.6783C137.449 62.2161 135.888 61.231 134.661 60.3724C134.045 59.9414 133.508 59.5386 133.126 59.2438C132.935 59.0965 132.782 58.9761 132.676 58.8924C132.624 58.8504 132.583 58.8174 132.555 58.7951L132.516 58.7628C132.516 58.7621 132.514 58.7609 132.514 58.7605L132.64 58.6062L132.513 58.7604C132.428 58.6904 132.416 58.5644 132.486 58.4791ZM142.014 52.5548C142.116 52.5132 142.233 52.562 142.275 52.664L142.276 52.666C142.278 52.6705 142.283 52.6791 142.289 52.6909C142.302 52.7144 142.323 52.7521 142.358 52.8017C142.426 52.9013 142.545 53.0508 142.74 53.2328C143.129 53.5968 143.823 54.0942 145.026 54.5954C145.127 54.6378 145.175 54.7554 145.133 54.8572C145.091 54.9591 144.973 55.0082 144.871 54.9658C143.633 54.4496 142.897 53.9267 142.467 53.5248C142.252 53.324 142.114 53.1531 142.028 53.0292C141.985 52.9674 141.955 52.9171 141.936 52.8808C141.926 52.8628 141.919 52.8473 141.913 52.8364C141.911 52.8312 141.908 52.8265 141.907 52.823L141.905 52.8169L141.905 52.8159L141.893 52.7765C141.876 52.6852 141.925 52.5914 142.014 52.5548ZM156.37 55.3218C156.48 55.3059 156.581 55.382 156.597 55.4913C156.613 55.6005 156.537 55.7021 156.427 55.718C155.099 55.9108 154.199 55.8407 153.624 55.7165C153.337 55.6544 153.131 55.5784 152.994 55.516C152.926 55.4849 152.874 55.457 152.838 55.4359C152.821 55.4255 152.807 55.4159 152.797 55.4092C152.792 55.4061 152.788 55.4034 152.785 55.4012C152.783 55.4001 152.781 55.3996 152.78 55.3988L152.779 55.3967L152.778 55.3966L152.748 55.3681C152.687 55.2986 152.681 55.1939 152.738 55.1169C152.804 55.0286 152.931 55.0095 153.019 55.0759L153.02 55.0779C153.024 55.0807 153.032 55.0853 153.044 55.0921C153.067 55.1057 153.105 55.1267 153.16 55.1516C153.27 55.2018 153.449 55.2692 153.71 55.3255C154.231 55.438 155.081 55.509 156.37 55.3218ZM142.619 51.6744C142.721 51.6327 142.838 51.6815 142.88 51.7835L142.881 51.7855C142.883 51.79 142.887 51.7986 142.894 51.8104C142.907 51.8339 142.928 51.8717 142.962 51.9212C143.031 52.0209 143.15 52.1704 143.345 52.3524C143.734 52.7164 144.428 53.2137 145.63 53.7149C145.732 53.7574 145.78 53.8749 145.738 53.9767C145.696 54.0786 145.578 54.1277 145.476 54.0854C144.238 53.5691 143.501 53.0462 143.072 52.6444C142.857 52.4435 142.718 52.2726 142.633 52.1487C142.59 52.087 142.56 52.0366 142.54 52.0003C142.531 51.9823 142.524 51.9668 142.518 51.9559C142.516 51.9507 142.513 51.946 142.512 51.9425C142.511 51.9411 142.511 51.9396 142.51 51.9384L142.51 51.9354L142.498 51.896C142.481 51.8048 142.53 51.7109 142.619 51.6744ZM156.461 54.4162C156.571 54.4005 156.672 54.4767 156.688 54.5857C156.704 54.6949 156.629 54.7974 156.519 54.8134C155.547 54.9547 154.885 54.9026 154.459 54.8106C154.246 54.7646 154.092 54.7093 153.989 54.6622C153.937 54.6388 153.898 54.6178 153.87 54.6014C153.857 54.5934 153.846 54.5851 153.838 54.5796C153.834 54.577 153.831 54.5746 153.828 54.5727C153.827 54.5718 153.825 54.5702 153.824 54.5694L153.822 54.5682C153.733 54.5018 153.716 54.3759 153.782 54.2876C153.849 54.2001 153.974 54.1824 154.062 54.2484C154.065 54.2501 154.069 54.2529 154.075 54.2566C154.09 54.2655 154.117 54.2804 154.155 54.2979C154.232 54.3327 154.358 54.3804 154.544 54.4205C154.915 54.5008 155.528 54.5517 156.461 54.4162Z" fill="#EED0A3"/>
<path id="Vector 38" d="M158.751 62.3586C158.97 62.3306 159.17 62.4855 159.198 62.7046C159.226 62.9238 159.071 63.1241 158.852 63.1521L158.801 62.7554L158.751 62.3586ZM137.391 55.8378C137.237 55.6794 137.24 55.4262 137.399 55.2721C137.557 55.1181 137.81 55.1216 137.964 55.28L137.678 55.5589L137.391 55.8378ZM158.801 62.7554L158.852 63.1521C152.465 63.9686 147.099 62.1379 143.339 60.1114C141.459 59.0979 139.976 58.0335 138.962 57.2213C138.454 56.8151 138.064 56.4716 137.799 56.2286C137.667 56.107 137.566 56.0105 137.498 55.9439C137.463 55.9105 137.437 55.8846 137.419 55.8667C137.41 55.8578 137.404 55.8509 137.399 55.846C137.396 55.8436 137.395 55.8417 137.393 55.8403C137.393 55.8396 137.392 55.8391 137.392 55.8386C137.391 55.8384 137.391 55.8382 137.391 55.8381C137.391 55.8379 137.391 55.8378 137.678 55.5589C137.964 55.28 137.964 55.2799 137.964 55.2798C137.964 55.2799 137.964 55.2798 137.964 55.2799C137.964 55.28 137.965 55.2803 137.965 55.2806C137.966 55.2814 137.967 55.2827 137.969 55.2845C137.972 55.2881 137.978 55.2937 137.985 55.3014C138.001 55.3168 138.024 55.3401 138.056 55.3708C138.119 55.4323 138.214 55.5233 138.341 55.6394C138.593 55.8714 138.97 56.203 139.462 56.5969C140.446 57.385 141.888 58.4208 143.719 59.4072C147.38 61.3804 152.576 63.1479 158.751 62.3586L158.801 62.7554Z" fill="#B3B87B"/>
<g id="Group 559">
<path id="Vector 28" d="M145.025 54.5957C145.127 54.6382 145.175 54.7553 145.132 54.8572C145.09 54.9592 144.973 55.0074 144.871 54.9649L144.948 54.7803L145.025 54.5957ZM141.904 52.8151C141.862 52.7128 141.911 52.5961 142.014 52.5544C142.116 52.5127 142.233 52.5618 142.274 52.6641L142.089 52.7396L141.904 52.8151ZM144.948 54.7803L144.871 54.9649C143.632 54.4485 142.896 53.9263 142.466 53.5244C142.251 53.3234 142.113 53.153 142.028 53.029C141.985 52.9671 141.955 52.9169 141.936 52.8805C141.926 52.8623 141.919 52.8476 141.913 52.8366C141.911 52.8311 141.909 52.8266 141.907 52.823C141.906 52.8212 141.906 52.8196 141.905 52.8183C141.905 52.8176 141.905 52.817 141.904 52.8165C141.904 52.8162 141.904 52.816 141.904 52.8157C141.904 52.8156 141.904 52.8155 141.904 52.8154C141.904 52.8152 141.904 52.8151 142.089 52.7396C142.274 52.6641 142.274 52.6639 142.274 52.6638C142.274 52.6637 142.274 52.6636 142.274 52.6635C142.274 52.6633 142.274 52.6632 142.274 52.663C142.274 52.6627 142.274 52.6625 142.274 52.6624C142.273 52.662 142.273 52.662 142.273 52.6621C142.274 52.6625 142.274 52.6638 142.275 52.666C142.277 52.6705 142.281 52.6787 142.288 52.6905C142.3 52.7141 142.323 52.7518 142.357 52.8016C142.426 52.9013 142.545 53.0502 142.739 53.2322C143.129 53.5963 143.822 54.0944 145.025 54.5957L144.948 54.7803Z" fill="#FEF7E7"/>
<path id="Vector 29" d="M145.63 53.7151C145.732 53.7575 145.78 53.8746 145.737 53.9766C145.695 54.0786 145.578 54.1268 145.476 54.0843L145.553 53.8997L145.63 53.7151ZM142.509 51.9345C142.467 51.8322 142.516 51.7155 142.619 51.6738C142.721 51.6321 142.838 51.6812 142.879 51.7835L142.694 51.859L142.509 51.9345ZM145.553 53.8997L145.476 54.0843C144.237 53.5679 143.501 53.0457 143.071 52.6438C142.856 52.4428 142.718 52.2723 142.633 52.1484C142.59 52.0865 142.56 52.0363 142.541 51.9999C142.531 51.9817 142.524 51.967 142.518 51.956C142.516 51.9505 142.514 51.9459 142.512 51.9423C142.511 51.9405 142.511 51.939 142.51 51.9377C142.51 51.937 142.51 51.9364 142.509 51.9359C142.509 51.9356 142.509 51.9354 142.509 51.9351C142.509 51.935 142.509 51.9348 142.509 51.9348C142.509 51.9346 142.509 51.9345 142.694 51.859C142.879 51.7835 142.879 51.7833 142.879 51.7832C142.879 51.7831 142.879 51.783 142.879 51.7829C142.879 51.7827 142.879 51.7826 142.879 51.7824C142.879 51.7821 142.879 51.7819 142.879 51.7817C142.878 51.7814 142.878 51.7813 142.878 51.7815C142.879 51.7818 142.879 51.7831 142.88 51.7854C142.882 51.7899 142.886 51.7981 142.893 51.8099C142.905 51.8335 142.927 51.8712 142.962 51.921C143.031 52.0207 143.15 52.1696 143.344 52.3516C143.734 52.7157 144.427 53.2138 145.63 53.7151L145.553 53.8997Z" fill="#FEF7E7"/>
<path id="Vector 33" d="M139.997 64.3806C140.098 64.4257 140.143 64.5439 140.098 64.6448C140.053 64.7456 139.935 64.7909 139.834 64.7459L139.916 64.5632L139.997 64.3806ZM128.619 57.4384C128.544 57.3575 128.549 57.2309 128.63 57.1558C128.711 57.0807 128.838 57.0854 128.913 57.1663L128.766 57.3024L128.619 57.4384ZM139.916 64.5632L139.834 64.7459C136.053 63.0575 133.253 61.2342 131.396 59.8313C130.468 59.1298 129.775 58.5335 129.314 58.1115C129.084 57.9006 128.911 57.7332 128.795 57.6182C128.737 57.5606 128.694 57.5162 128.665 57.4859C128.65 57.4707 128.639 57.4591 128.631 57.4511C128.628 57.4472 128.625 57.4441 128.623 57.442C128.622 57.4409 128.621 57.4401 128.62 57.4395C128.62 57.4392 128.62 57.439 128.62 57.4388C128.62 57.4387 128.62 57.4386 128.62 57.4386C128.62 57.4385 128.619 57.4384 128.766 57.3024C128.913 57.1663 128.913 57.1663 128.913 57.1663C128.913 57.1663 128.913 57.1663 128.913 57.1663C128.913 57.1664 128.913 57.1665 128.913 57.1667C128.913 57.167 128.914 57.1676 128.915 57.1684C128.916 57.1701 128.919 57.1727 128.922 57.1762C128.929 57.1832 128.939 57.1939 128.952 57.2081C128.98 57.2365 129.022 57.2791 129.077 57.3347C129.189 57.4459 129.358 57.6094 129.584 57.8164C130.037 58.2305 130.72 58.8188 131.637 59.5122C133.473 60.899 136.247 62.7061 139.997 64.3806L139.916 64.5632Z" fill="#FEF7E7"/>
<path id="Vector 35" d="M166.157 70.2353C166.265 70.2116 166.372 70.2799 166.396 70.3878C166.419 70.4957 166.351 70.6023 166.243 70.626L166.2 70.4307L166.157 70.2353ZM157.63 70.4355C157.527 70.3966 157.475 70.2812 157.513 70.1778C157.552 70.0745 157.668 70.0222 157.771 70.0611L157.701 70.2483L157.63 70.4355ZM166.2 70.4307L166.243 70.626C163.686 71.1873 161.538 71.1416 160.027 70.9548C159.272 70.8613 158.675 70.7326 158.267 70.6267C158.062 70.5738 157.904 70.5265 157.797 70.4922C157.744 70.4751 157.703 70.4612 157.675 70.4514C157.661 70.4465 157.65 70.4427 157.642 70.44C157.639 70.4386 157.636 70.4376 157.634 70.4368C157.633 70.4365 157.632 70.4361 157.631 70.4359C157.631 70.4358 157.631 70.4357 157.631 70.4356C157.63 70.4356 157.63 70.4356 157.63 70.4355C157.63 70.4355 157.63 70.4355 157.701 70.2483C157.771 70.0611 157.771 70.0611 157.771 70.0611C157.771 70.0611 157.771 70.0611 157.771 70.0611C157.771 70.0611 157.771 70.0611 157.771 70.0612C157.771 70.0612 157.772 70.0614 157.772 70.0616C157.774 70.0621 157.776 70.0629 157.779 70.064C157.785 70.0661 157.794 70.0694 157.806 70.0737C157.831 70.0824 157.869 70.0952 157.919 70.1112C158.02 70.1434 158.17 70.1885 158.367 70.2395C158.761 70.3414 159.34 70.4667 160.076 70.5578C161.549 70.74 163.651 70.7855 166.157 70.2353L166.2 70.4307Z" fill="#FEF7E7"/>
<path id="Vector 36" d="M160.104 65.056C160.21 65.0252 160.321 65.0863 160.352 65.1923C160.383 65.2984 160.321 65.4094 160.215 65.4401L160.16 65.248L160.104 65.056ZM153.549 65.4488C153.443 65.4167 153.383 65.3049 153.415 65.1992C153.448 65.0936 153.559 65.034 153.665 65.0662L153.607 65.2575L153.549 65.4488ZM160.16 65.248L160.215 65.4401C158.497 65.9384 156.832 65.9401 155.599 65.8186C154.982 65.7578 154.471 65.6659 154.114 65.5891C153.936 65.5507 153.795 65.5159 153.699 65.4907C153.651 65.478 153.614 65.4677 153.589 65.4605C153.576 65.4569 153.566 65.4541 153.559 65.4521C153.556 65.4511 153.554 65.4503 153.552 65.4498C153.551 65.4495 153.55 65.4493 153.55 65.4491C153.549 65.4491 153.549 65.449 153.549 65.4489C153.549 65.4489 153.549 65.4489 153.549 65.4489C153.549 65.4489 153.549 65.4488 153.607 65.2575C153.665 65.0662 153.665 65.0662 153.665 65.0662C153.665 65.0662 153.665 65.0662 153.665 65.0662C153.665 65.0662 153.665 65.0662 153.665 65.0662C153.665 65.0663 153.666 65.0664 153.666 65.0666C153.668 65.067 153.67 65.0676 153.673 65.0684C153.678 65.07 153.687 65.0725 153.698 65.0758C153.721 65.0823 153.755 65.0918 153.801 65.1038C153.892 65.1277 154.026 65.161 154.199 65.1981C154.543 65.2722 155.039 65.3614 155.638 65.4205C156.839 65.5388 158.45 65.5357 160.104 65.056L160.16 65.248Z" fill="#FEF7E7"/>
<path id="Vector 37" d="M160.603 65.9533C160.688 65.8832 160.814 65.8957 160.884 65.981C160.954 66.0664 160.942 66.1924 160.856 66.2625L160.729 66.1079L160.603 65.9533ZM156.044 67.0298C155.935 67.0147 155.859 66.9137 155.874 66.8043C155.889 66.6949 155.99 66.6184 156.099 66.6336L156.072 66.8317L156.044 67.0298ZM160.729 66.1079L160.856 66.2625C160.468 66.5811 159.967 66.7823 159.448 66.9089C158.927 67.0358 158.374 67.0907 157.873 67.1084C157.371 67.126 156.915 67.1065 156.585 67.0826C156.419 67.0706 156.285 67.0575 156.192 67.0474C156.145 67.0423 156.109 67.038 156.084 67.0349C156.071 67.0333 156.062 67.0321 156.055 67.0312C156.052 67.0308 156.049 67.0304 156.047 67.0302C156.047 67.0301 156.046 67.03 156.045 67.0299C156.045 67.0299 156.045 67.0299 156.045 67.0298C156.045 67.0298 156.045 67.0298 156.045 67.0298C156.045 67.0298 156.044 67.0298 156.072 66.8317C156.099 66.6336 156.099 66.6335 156.099 66.6335C156.099 66.6335 156.099 66.6335 156.099 66.6336C156.099 66.6336 156.099 66.6336 156.099 66.6336C156.1 66.6336 156.1 66.6337 156.101 66.6338C156.102 66.634 156.104 66.6342 156.107 66.6346C156.113 66.6354 156.122 66.6365 156.133 66.6379C156.156 66.6408 156.191 66.6449 156.235 66.6497C156.324 66.6594 156.454 66.672 156.614 66.6836C156.934 66.7068 157.375 66.7257 157.859 66.7086C158.344 66.6916 158.867 66.6387 159.353 66.5202C159.841 66.4014 160.278 66.2196 160.603 65.9533L160.729 66.1079Z" fill="#FEF7E7"/>
<path id="Vector 34" d="M138.876 62.3012C138.98 62.3383 139.034 62.4528 138.997 62.5568C138.96 62.6608 138.845 62.715 138.741 62.6778L138.809 62.4895L138.876 62.3012ZM132.513 58.7603C132.427 58.6904 132.415 58.5643 132.485 58.4789C132.555 58.3934 132.681 58.3809 132.766 58.4509L132.639 58.6056L132.513 58.7603ZM138.809 62.4895L138.741 62.6778C137.448 62.2158 135.887 61.2309 134.66 60.3722C134.044 59.941 133.508 59.5385 133.125 59.2436C132.934 59.0962 132.781 58.9756 132.676 58.8918C132.623 58.8499 132.583 58.8171 132.555 58.7948C132.541 58.7837 132.531 58.7751 132.524 58.7693C132.52 58.7664 132.517 58.7642 132.516 58.7627C132.515 58.7619 132.514 58.7614 132.513 58.761C132.513 58.7608 132.513 58.7606 132.513 58.7605C132.513 58.7605 132.513 58.7604 132.513 58.7604C132.513 58.7604 132.513 58.7603 132.639 58.6056C132.766 58.4509 132.766 58.4509 132.766 58.4509C132.766 58.4509 132.766 58.4509 132.766 58.451C132.766 58.4511 132.766 58.4512 132.767 58.4513C132.767 58.4517 132.768 58.4522 132.769 58.4529C132.77 58.4542 132.773 58.4563 132.776 58.4591C132.783 58.4646 132.793 58.4729 132.807 58.4838C132.834 58.5055 132.873 58.5377 132.925 58.579C133.029 58.6616 133.18 58.7809 133.369 58.9269C133.748 59.2189 134.279 59.6177 134.889 60.0445C136.114 60.9015 137.637 61.8586 138.876 62.3012L138.809 62.4895Z" fill="#FEF7E7"/>
<path id="Vector 30" d="M156.37 55.3216C156.479 55.3057 156.58 55.3815 156.596 55.4908C156.612 55.6001 156.536 55.7016 156.427 55.7175L156.398 55.5195L156.37 55.3216ZM152.777 55.3958C152.689 55.3295 152.671 55.2041 152.738 55.1158C152.804 55.0275 152.929 55.0097 153.018 55.0761L152.898 55.236L152.777 55.3958ZM156.398 55.5195L156.427 55.7175C155.099 55.9104 154.199 55.8401 153.624 55.7158C153.337 55.6537 153.131 55.5782 152.994 55.5158C152.925 55.4846 152.874 55.4568 152.838 55.4356C152.821 55.4251 152.807 55.4162 152.797 55.4094C152.792 55.406 152.788 55.4032 152.784 55.4009C152.783 55.3997 152.781 55.3987 152.78 55.3979C152.78 55.3975 152.779 55.3971 152.779 55.3968C152.778 55.3966 152.778 55.3964 152.778 55.3963C152.778 55.3962 152.778 55.3961 152.778 55.396C152.778 55.3959 152.777 55.3958 152.898 55.236C153.018 55.0761 153.018 55.076 153.017 55.0759C153.017 55.0759 153.017 55.0758 153.017 55.0757C153.017 55.0756 153.017 55.0755 153.017 55.0754C153.017 55.0752 153.016 55.0751 153.016 55.075C153.016 55.0748 153.016 55.0747 153.016 55.0748C153.016 55.075 153.018 55.0759 153.02 55.0772C153.024 55.08 153.031 55.085 153.043 55.0919C153.066 55.1055 153.104 55.1266 153.159 55.1517C153.27 55.2019 153.448 55.2686 153.709 55.3249C154.23 55.4374 155.08 55.5089 156.37 55.3216L156.398 55.5195Z" fill="#FEF7E7"/>
<path id="Vector 31" d="M156.461 54.4168C156.57 54.4009 156.672 54.4767 156.688 54.586C156.704 54.6953 156.628 54.7968 156.518 54.8127L156.49 54.6147L156.461 54.4168ZM153.821 54.5682C153.733 54.5018 153.715 54.3764 153.781 54.2881C153.848 54.1998 153.973 54.1821 154.061 54.2484L153.941 54.4083L153.821 54.5682ZM156.49 54.6147L156.518 54.8127C155.546 54.9539 154.885 54.9029 154.459 54.8108C154.246 54.7648 154.092 54.7086 153.989 54.6615C153.937 54.638 153.898 54.6168 153.87 54.6004C153.856 54.5922 153.846 54.5852 153.837 54.5798C153.833 54.577 153.83 54.5747 153.827 54.5727C153.826 54.5717 153.825 54.5709 153.824 54.5701C153.823 54.5697 153.823 54.5694 153.822 54.5691C153.822 54.5689 153.822 54.5688 153.822 54.5686C153.821 54.5685 153.821 54.5684 153.821 54.5684C153.821 54.5683 153.821 54.5682 153.941 54.4083C154.061 54.2484 154.061 54.2483 154.061 54.2482C154.061 54.2482 154.061 54.2481 154.061 54.2481C154.061 54.2479 154.061 54.2478 154.06 54.2477C154.06 54.2475 154.06 54.2473 154.06 54.2472C154.059 54.2469 154.059 54.2467 154.059 54.2467C154.059 54.2465 154.059 54.2469 154.06 54.2476C154.062 54.2491 154.067 54.2522 154.075 54.2567C154.09 54.2656 154.116 54.28 154.154 54.2975C154.231 54.3323 154.357 54.3797 154.543 54.4198C154.915 54.5002 155.528 54.5524 156.461 54.4168L156.49 54.6147Z" fill="#FEF7E7"/>
</g>
</g>
<g id="face">
<g id="Group 588">
<g id="Group 585">
<ellipse id="Ellipse 60" cx="123.348" cy="87.5165" rx="2.68517" ry="2.95368" transform="rotate(-5.00454 123.348 87.5165)" fill="#5A4432"/>
<ellipse id="Ellipse 61" cx="124.592" cy="86.3296" rx="0.805553" ry="0.805549" transform="rotate(-5.00454 124.592 86.3296)" fill="#FFFBFB"/>
</g>
<g id="Group 586">
<ellipse id="Ellipse 60_2" cx="2.68517" cy="2.95368" rx="2.68517" ry="2.95368" transform="matrix(-0.996188 0.0872347 0.0872347 0.996188 149.839 82.2319)" fill="#5A4432"/>
<ellipse id="Ellipse 61_2" cx="0.805553" cy="0.805549" rx="0.805553" ry="0.805549" transform="matrix(-0.996188 0.0872347 0.0872347 0.996188 146.723 83.5825)" fill="#FFFBFB"/>
</g>
<g id="Group 587">
<path id="Vector 76" d="M135.281 88.3586L135.422 89.9636" stroke="#5C4633" stroke-width="0.6" stroke-linecap="round"/>
<path id="Vector 75" d="M133.6 87.4279C133.683 86.6763 134.357 86.2833 135.111 86.2174C135.864 86.1514 136.597 86.4211 136.81 87.1468C137.022 87.8725 136.231 88.8147 135.345 88.8923C134.459 88.9699 133.516 88.1795 133.6 87.4279Z" fill="#5C4633"/>
<path id="Vector 77" d="M135.422 89.9634C135.422 89.9634 134.42 91.1292 133.376 91.2207C132.331 91.3122 131.142 90.3381 131.142 90.3381" stroke="#5C4633" stroke-width="0.6" stroke-linecap="round"/>
<path id="Vector 78" d="M135.422 89.9629C135.422 89.9629 136.611 90.937 137.655 90.8455C138.7 90.754 139.702 89.5881 139.702 89.5881" stroke="#5C4633" stroke-width="0.6" stroke-linecap="round"/>
</g>
</g>
<g id="Group 592">
<g id="Ellipse 62" filter="url(#filter2_f_0_1)">
<ellipse cx="116.35" cy="93.7896" rx="5.37035" ry="3.75923" transform="rotate(-5.00454 116.35 93.7896)" fill="#FEDDCD"/>
</g>
<g id="Group 591">
<path id="Vector 91" d="M114.64 93.2327L114.797 95.0196" stroke="#FFD3BE" stroke-width="0.6" stroke-linecap="round"/>
<path id="Vector 92" d="M116.427 93.0759L116.584 94.8629" stroke="#FFD3BE" stroke-width="0.6" stroke-linecap="round"/>
<path id="Vector 93" d="M118.214 92.9194L118.37 94.7064" stroke="#FFD3BE" stroke-width="0.6" stroke-linecap="round"/>
</g>
</g>
<g id="Group 593">
<g id="Ellipse 63" filter="url(#filter3_f_0_1)">
<ellipse cx="154.869" cy="90.417" rx="5.37035" ry="3.75923" transform="rotate(-5.00454 154.869 90.417)" fill="#FEDDCD"/>
</g>
<g id="Group 591_2">
<path id="Vector 91_2" d="M153.06 89.8687L153.216 91.6556" stroke="#FFD3BE" stroke-width="0.6" stroke-linecap="round"/>
<path id="Vector 92_2" d="M154.847 89.7122L155.003 91.4991" stroke="#FFD3BE" stroke-width="0.6" stroke-linecap="round"/>
<path id="Vector 93_2" d="M156.634 89.5549L156.79 91.3419" stroke="#FFD3BE" stroke-width="0.6" stroke-linecap="round"/>
</g>
</g>
</g>
</g>
<path id="Vector 102" d="M190.326 97.4822L190.26 95.2121C190.226 94.0206 189.163 93.1235 187.983 93.2893L100.086 105.634C98.9519 105.793 98.1829 106.87 98.4008 107.995L98.5455 108.741L146.007 126.756L190.326 97.4822Z" fill="#A8B686" stroke="#BEC59E" stroke-width="0.5" stroke-linecap="round"/>
<path id="Vector 101" d="M189.629 123.552L186.989 92.4072C186.894 91.2768 185.878 90.4523 184.752 90.5911L106.594 100.227C105.502 100.362 104.724 101.352 104.852 102.444L108.562 134.248L189.629 123.552Z" fill="#FFFDEF" stroke="#AAB18C" stroke-width="0.5" stroke-linecap="round"/>
<g id="Group 595">
<path id="Vector 103" d="M103.199 147.76L145.289 123.057L98 108.742L102.45 147.386C102.491 147.745 102.888 147.943 103.199 147.76Z" fill="#EBF4D4" stroke="#BEC59E" stroke-width="0.6" stroke-linecap="round"/>
<path id="Vector 105" d="M193.504 134.151L190.251 97.7271L150.784 122.287L192.865 134.675C193.203 134.775 193.535 134.502 193.504 134.151Z" fill="#EBF4D4" stroke="#BEC59E" stroke-width="0.6" stroke-linecap="round"/>
<path id="Vector 104" d="M192.967 134.189L148.879 116.488C147.611 115.979 146.171 116.152 145.06 116.947L102.91 147.129C102.484 147.434 102.754 148.105 103.272 148.03L192.852 135.148C193.358 135.076 193.442 134.38 192.967 134.189Z" fill="#EBF4D4" stroke="#BEC59E" stroke-width="0.6" stroke-linecap="round"/>
</g>
<g id="hand">
<g id="left-hand">
<path d="M114.192 105.253C113.149 105.601 111.377 105.253 111.377 105.253C111.377 105.253 110.251 106.872 107.999 106.942C105.747 107.012 103.485 104.691 103.496 101.875C103.507 99.0598 107.999 96.2456 110.251 95.6829C112.503 95.1202 116.444 95.1193 118.696 98.4973C120.947 101.875 116.444 103.564 116.444 103.564C116.444 103.564 115.235 104.906 114.192 105.253Z" fill="#FEF7E7"/>
<path d="M109.688 101.313L111.377 105.253M111.377 105.253C111.377 105.253 113.149 105.601 114.192 105.253C115.235 104.906 116.444 103.564 116.444 103.564M111.377 105.253C111.377 105.253 110.251 106.872 107.999 106.942C105.747 107.012 103.485 104.691 103.496 101.875C103.507 99.0598 107.999 96.2456 110.251 95.6829C112.503 95.1202 116.444 95.1193 118.696 98.4973C120.947 101.875 116.444 103.564 116.444 103.564M116.444 103.564L115.881 100.75" stroke="#E2CBA7" stroke-width="0.6" stroke-linecap="round"/>
</g>
<g id="right-hand">
<path d="M170.611 98.5258C169.535 98.7524 167.814 98.2053 167.814 98.2053C167.814 98.2053 166.511 99.6852 164.266 99.4986C162.021 99.312 160.037 96.7476 160.369 93.9518C160.7 91.1559 165.484 88.8716 167.785 88.569C170.087 88.2664 174.002 88.7142 175.854 92.3267C177.707 95.9391 173.04 97.1043 173.04 97.1043C173.04 97.1043 171.686 98.2992 170.611 98.5258Z" fill="#FEF7E7"/>
<path d="M166.585 94.0979L167.814 98.2053M167.814 98.2053C167.814 98.2053 169.535 98.7524 170.611 98.5258C171.686 98.2992 173.04 97.1043 173.04 97.1043M167.814 98.2053C167.814 98.2053 166.511 99.6852 164.266 99.4986C162.021 99.312 160.037 96.7476 160.369 93.9518C160.7 91.1559 165.484 88.8716 167.785 88.569C170.087 88.2664 174.002 88.7142 175.854 92.3267C177.707 95.9391 173.04 97.1043 173.04 97.1043M173.04 97.1043L172.801 94.2437" stroke="#E2CBA7" stroke-width="0.6" stroke-linecap="round"/>
</g>
</g>
</g>
</g>
</g>
<path d="M41.1284 15.0759L41.0237 15.5648L41.1284 15.0759ZM53.6684 14.6854L53.5903 15.1792L53.6684 14.6854ZM74.5684 14.9821L74.4098 14.5079L74.5684 14.9821ZM91.2884 15.076L91.2551 14.5771L91.2884 15.076ZM120.548 15.0967L120.688 14.6166L120.548 15.0967ZM145.628 15.2808L145.537 14.7893L145.628 15.2808ZM149.808 14.8596L149.801 14.3596L149.808 14.8596ZM153.988 15.3087L154.101 14.8214L153.988 15.3087ZM158.168 15.1509L158.315 15.6291L158.168 15.1509ZM162.348 14.72L162.299 15.2176L162.348 14.72ZM170.722 15.1782L170.778 15.6751L170.722 15.1782ZM174.882 15.4399L175 14.9539L174.882 15.4399ZM185.121 22.2293L184.655 22.4104L185.121 22.2293ZM189.184 29.6113L189.605 29.3408L189.184 29.6113ZM189.368 58.7533L188.869 58.719L189.368 58.7533ZM190.286 71.2933L189.793 71.3745L190.286 71.2933ZM190.142 75.4733L190.629 75.587L190.142 75.4733ZM189.775 79.6533L189.275 79.6822L189.775 79.6533ZM189.904 83.8333L189.404 83.8352L189.904 83.8333ZM190.121 88.0133L189.623 88.063L190.121 88.0133ZM190.247 92.1933L189.747 92.1734L190.247 92.1933ZM190.076 96.3733L189.576 96.3523L190.076 96.3733ZM189.938 100.553L190.438 100.565L189.938 100.553ZM188.665 113.054L189.122 113.257L188.665 113.054ZM186.495 116.713L186.097 116.409L186.495 116.713ZM172.304 125.223L172.365 125.719L172.304 125.223ZM168.087 125.184L168.158 124.689L168.087 125.184ZM155.543 124.401L155.562 123.901L155.543 124.401ZM151.363 124.469L151.327 123.971L151.363 124.469ZM134.643 125.388L134.703 125.885L134.643 125.388ZM130.463 125.447L130.509 124.949L130.463 125.447ZM126.283 125.204L126.271 125.704L126.283 125.204ZM122.103 125.22L122.118 125.72L122.103 125.22ZM109.563 124.816L109.474 124.324L109.563 124.816ZM101.203 125.051L101.196 124.551L101.203 125.051ZM97.0228 125.023L97.0088 125.523L97.0228 125.023ZM88.6628 125.105L88.4981 124.633V124.633L88.6628 125.105ZM84.4828 125.037L84.6608 124.57L84.4828 125.037ZM76.1228 124.669L76.0392 124.176L76.1228 124.669ZM71.9428 125.312L72.0111 125.807L71.9428 125.312ZM67.7628 125.597L67.7634 125.097L67.7628 125.597ZM63.5828 125.642L63.5714 125.142L63.5828 125.642ZM59.4028 125.007L59.2475 125.482L59.4028 125.007ZM46.8628 124.745L46.9173 125.242L46.8628 124.745ZM42.6828 124.872L42.6582 125.371L42.6828 124.872ZM30.2033 124.106L30.2148 124.606L30.2033 124.106ZM26.2572 123.075L26.5133 122.645L26.2572 123.075ZM22.8405 120.679L22.5235 121.065L22.8405 120.679ZM17.1048 114.702L16.6314 114.863L17.1048 114.702ZM15.8734 110.654L15.3905 110.784L15.8734 110.654ZM16.5269 27.5287L16.1518 27.1981L16.5269 27.5287ZM19.0489 24.1816L18.6258 23.9152L19.0489 24.1816ZM24.0166 17.476L23.7778 17.0367L24.0166 17.476ZM32.1758 15.668L32.1528 16.1675L32.1758 15.668ZM34.5553 15.372L34.1599 15.066L34.5553 15.372ZM36.9484 14.8043L36.9904 15.3026C38.3337 15.1893 39.6776 15.2765 41.0237 15.5648L41.1284 15.0759L41.2331 14.587C39.7925 14.2784 38.3498 14.1844 36.9064 14.3061L36.9484 14.8043ZM41.1284 15.0759L41.0237 15.5648C42.4832 15.8775 43.9451 15.8897 45.4053 15.6011L45.3084 15.1106L45.2115 14.6201C43.885 14.8822 42.5603 14.8713 41.2331 14.587L41.1284 15.0759ZM45.3084 15.1106L45.4053 15.6011C46.7804 15.3293 48.1551 15.1372 49.5293 15.0244L49.4884 14.5261L49.4475 14.0278C48.0351 14.1436 46.623 14.3411 45.2115 14.6201L45.3084 15.1106ZM49.4884 14.5261L49.5293 15.0244C50.8825 14.9134 52.2359 14.9649 53.5903 15.1792L53.6684 14.6854L53.7465 14.1915C52.3142 13.9649 50.8809 13.9102 49.4475 14.0278L49.4884 14.5261ZM53.6684 14.6854L53.5903 15.1792C55.008 15.4036 56.4262 15.5208 57.8449 15.5308L57.8484 15.0308L57.8519 14.5308C56.4839 14.5212 55.1155 14.4081 53.7465 14.1915L53.6684 14.6854ZM57.8484 15.0308L57.8449 15.5308C59.2639 15.5408 60.6825 15.4421 62.1007 15.2348L62.0284 14.7401L61.9561 14.2453C60.5876 14.4453 59.2196 14.5404 57.8519 14.5308L57.8484 15.0308ZM62.0284 14.7401L62.1007 15.2348C63.4609 15.0361 64.8204 14.9758 66.1798 15.0538L66.2084 14.5546L66.237 14.0554C64.8097 13.9735 63.3825 14.0369 61.9561 14.2453L62.0284 14.7401ZM66.2084 14.5546L66.1798 15.0538C67.5425 15.1319 68.9063 15.3351 70.2713 15.6638L70.3884 15.1777L70.5054 14.6916C69.0839 14.3493 67.661 14.1371 66.237 14.0554L66.2084 14.5546ZM70.3884 15.1777L70.2713 15.6638C71.7582 16.0219 73.2471 15.9512 74.727 15.4563L74.5684 14.9821L74.4098 14.5079C73.1031 14.9449 71.8052 15.0046 70.5054 14.6916L70.3884 15.1777ZM74.5684 14.9821L74.727 15.4563C76.0554 15.0121 77.3765 14.8635 78.6948 15.0056L78.7484 14.5084L78.802 14.0113C77.3336 13.8531 75.868 14.0203 74.4098 14.5079L74.5684 14.9821ZM78.7484 14.5084L78.6948 15.0056C80.128 15.16 81.5615 15.1418 82.9944 14.9511L82.9284 14.4555L82.8624 13.9599C81.5086 14.14 80.1554 14.1572 78.802 14.0113L78.7484 14.5084ZM82.9284 14.4555L82.9944 14.9511C84.3241 14.7741 85.6542 14.8504 86.9879 15.1817L87.1084 14.6964L87.2289 14.2111C85.776 13.8503 84.3194 13.766 82.8624 13.9599L82.9284 14.4555ZM87.1084 14.6964L86.9879 15.1817C88.43 15.5398 89.8752 15.6714 91.3217 15.5748L91.2884 15.076L91.2551 14.5771C89.9149 14.6665 88.5734 14.5451 87.2289 14.2111L87.1084 14.6964ZM91.2884 15.076L91.3217 15.5748C92.7148 15.4819 94.108 15.3897 95.5011 15.2984L95.4684 14.7994L95.4357 14.3005C94.0422 14.3919 92.6486 14.484 91.2551 14.5771L91.2884 15.076ZM95.4684 14.7994L95.5011 15.2984C96.9045 15.2063 98.3079 15.0717 99.7111 14.8943L99.6484 14.3982L99.5857 13.9022C98.2023 14.077 96.8189 14.2098 95.4357 14.3005L95.4684 14.7994ZM99.6484 14.3982L99.7111 14.8943C101.022 14.7286 102.336 14.8805 103.659 15.3568L103.828 14.8863L103.998 14.4158C102.534 13.8891 101.062 13.7156 99.5857 13.9022L99.6484 14.3982ZM103.828 14.8863L103.659 15.3568C105.161 15.8975 106.674 15.8995 108.177 15.3627L108.008 14.8919L107.84 14.421C106.556 14.8798 105.282 14.8781 103.998 14.4158L103.828 14.8863ZM108.008 14.8919L108.177 15.3627C109.49 14.8937 110.792 14.7875 112.094 15.0373L112.188 14.5462L112.283 14.0552C110.798 13.7703 109.314 13.8946 107.84 14.421L108.008 14.8919ZM112.188 14.5462L112.094 15.0373C113.536 15.3139 114.979 15.3732 116.423 15.2145L116.368 14.7175L116.314 14.2205C114.971 14.3681 113.628 14.3132 112.283 14.0552L112.188 14.5462ZM116.368 14.7175L116.423 15.2145C117.749 15.0688 119.076 15.1885 120.409 15.5767L120.548 15.0967L120.688 14.6166C119.234 14.193 117.775 14.0599 116.314 14.2205L116.368 14.7175ZM120.548 15.0967L120.409 15.5767C121.909 16.0138 123.413 15.9474 124.905 15.3839L124.728 14.9162L124.552 14.4484C123.257 14.9375 121.975 14.9914 120.688 14.6166L120.548 15.0967ZM124.728 14.9162L124.905 15.3839C126.23 14.8835 127.545 14.7068 128.856 14.8461L128.908 14.3489L128.961 13.8517C127.485 13.6948 126.013 13.8963 124.552 14.4484L124.728 14.9162ZM128.908 14.3489L128.856 14.8461C130.259 14.9953 131.663 15.1006 133.067 15.162L133.088 14.6625L133.11 14.163C131.727 14.1025 130.344 13.9988 128.961 13.8517L128.908 14.3489ZM133.088 14.6625L133.067 15.162C134.473 15.2235 135.879 15.2305 137.285 15.1829L137.268 14.6832L137.251 14.1835C135.871 14.2302 134.491 14.2234 133.11 14.163L133.088 14.6625ZM137.268 14.6832L137.285 15.1829C138.63 15.1374 139.977 15.2845 141.326 15.6257L141.448 15.141L141.571 14.6563C140.133 14.2927 138.693 14.1347 137.251 14.1835L137.268 14.6832ZM141.448 15.141L141.326 15.6257C142.788 15.9956 144.254 16.045 145.72 15.7724L145.628 15.2808L145.537 14.7893C144.216 15.035 142.895 14.9912 141.571 14.6563L141.448 15.141ZM145.628 15.2808L145.72 15.7724C147.086 15.5183 148.451 15.3807 149.816 15.3595L149.808 14.8596L149.801 14.3596C148.379 14.3817 146.957 14.525 145.537 14.7893L145.628 15.2808ZM149.808 14.8596L149.816 15.3595C151.168 15.3385 152.521 15.4836 153.876 15.7959L153.988 15.3087L154.101 14.8214C152.669 14.4915 151.235 14.3373 149.801 14.3596L149.808 14.8596ZM153.988 15.3087L153.876 15.7959C155.357 16.1371 156.839 16.0805 158.315 15.6291L158.168 15.1509L158.022 14.6728C156.711 15.0739 155.407 15.1224 154.101 14.8214L153.988 15.3087ZM158.168 15.1509L158.315 15.6291C159.647 15.2214 160.974 15.0855 162.299 15.2176L162.348 14.72L162.398 14.2225C160.936 14.0767 159.476 14.228 158.022 14.6728L158.168 15.1509ZM162.348 14.72L162.299 15.2176C163.689 15.3563 165.08 15.5064 166.471 15.6679L166.528 15.1713L166.586 14.6746C165.19 14.5124 163.794 14.3618 162.398 14.2225L162.348 14.72ZM166.528 15.1713L166.471 15.6679C167.902 15.8342 169.338 15.8365 170.778 15.6751L170.722 15.1782L170.666 14.6813C169.301 14.8343 167.942 14.832 166.586 14.6746L166.528 15.1713ZM170.722 15.1782L170.778 15.6751C172.122 15.5244 173.45 15.6079 174.765 15.9259L174.882 15.4399L175 14.9539C173.572 14.6085 172.127 14.5176 170.666 14.6813L170.722 15.1782ZM174.882 15.4399L174.765 15.9259C176.055 16.2379 177.195 16.8406 178.193 17.7389L178.528 17.3673L178.862 16.9957C177.742 15.9875 176.453 15.3053 175 14.9539L174.882 15.4399ZM178.528 17.3673L178.193 17.7389C179.306 18.7404 180.598 19.4817 182.064 19.9633L182.22 19.4883L182.376 19.0132C181.037 18.5734 179.867 17.9007 178.862 16.9957L178.528 17.3673ZM182.22 19.4883L182.064 19.9633C183.327 20.3778 184.179 21.1844 184.655 22.4104L185.121 22.2293L185.587 22.0483C185.002 20.541 183.92 19.5202 182.376 19.0132L182.22 19.4883ZM185.121 22.2293L184.655 22.4104C185.195 23.8008 185.819 25.0898 186.526 26.2762L186.956 26.0201L187.385 25.764C186.709 24.6293 186.109 23.3911 185.587 22.0483L185.121 22.2293ZM186.956 26.0201L186.526 26.2762C187.222 27.442 187.967 28.6438 188.764 29.8818L189.184 29.6113L189.605 29.3408C188.814 28.1116 188.074 26.9193 187.385 25.764L186.956 26.0201ZM189.184 29.6113L188.764 29.8818C189.512 31.0451 189.925 32.2966 190.008 33.6433L190.507 33.6125L191.006 33.5816C190.912 32.0606 190.443 30.6447 189.605 29.3408L189.184 29.6113ZM190.507 33.6125L190.008 33.6433C190.093 35.018 189.937 36.373 189.54 37.7108L190.019 37.8533L190.498 37.9958C190.929 36.547 191.099 35.0747 191.006 33.5816L190.507 33.6125ZM190.019 37.8533L189.54 37.7108C189.107 39.1663 188.973 40.6275 189.14 42.0902L189.637 42.0333L190.134 41.9763C189.982 40.6524 190.102 39.3269 190.498 37.9958L190.019 37.8533ZM189.637 42.0333L189.14 42.0902C189.298 43.4666 189.384 44.8427 189.399 46.2187L189.899 46.2133L190.399 46.2079C190.384 44.7972 190.295 43.3867 190.134 41.9763L189.637 42.0333ZM189.899 46.2133L189.399 46.2187C189.414 47.601 189.384 48.9833 189.307 50.3656L189.806 50.3933L190.305 50.421C190.383 49.0166 190.415 47.6122 190.399 46.2079L189.899 46.2133ZM189.806 50.3933L189.307 50.3656C189.229 51.7611 189.161 53.1565 189.102 54.552L189.601 54.5733L190.101 54.5946C190.16 53.2034 190.228 51.8122 190.305 50.421L189.806 50.3933ZM189.601 54.5733L189.102 54.552C189.042 55.941 188.965 57.33 188.869 58.719L189.368 58.7533L189.867 58.7876C189.963 57.3899 190.041 55.9923 190.101 54.5946L189.601 54.5733ZM189.368 58.7533L188.869 58.719C188.77 60.1698 188.917 61.6189 189.309 63.0642L189.792 62.9333L190.274 62.8023C189.91 61.461 189.775 60.1234 189.867 58.7876L189.368 58.7533ZM189.792 62.9333L189.309 63.0642C189.672 64.4006 189.786 65.7328 189.653 67.0636L190.15 67.1133L190.648 67.1629C190.793 65.7071 190.668 64.2526 190.274 62.8023L189.792 62.9333ZM190.15 67.1133L189.653 67.0636C189.509 68.501 189.556 69.9383 189.793 71.3745L190.286 71.2933L190.779 71.212C190.557 69.8616 190.513 68.5123 190.648 67.1629L190.15 67.1133ZM190.286 71.2933L189.793 71.3745C190.011 72.7022 189.966 74.0293 189.655 75.3595L190.142 75.4733L190.629 75.587C190.969 74.1306 191.02 72.671 190.779 71.212L190.286 71.2933ZM190.142 75.4733L189.655 75.3595C189.319 76.7984 189.192 78.2398 189.275 79.6822L189.775 79.6533L190.274 79.6244C190.196 78.2802 190.314 76.9348 190.629 75.587L190.142 75.4733ZM189.775 79.6533L189.275 79.6822C189.356 81.0665 189.398 82.4509 189.404 83.8352L189.904 83.8333L190.404 83.8314C190.398 82.429 190.355 81.0267 190.274 79.6244L189.775 79.6533ZM189.904 83.8333L189.404 83.8352C189.409 85.2446 189.482 86.6539 189.623 88.063L190.121 88.0133L190.618 87.9635C190.48 86.586 190.409 85.2087 190.404 83.8314L189.904 83.8333ZM190.121 88.0133L189.623 88.063C189.76 89.4333 189.801 90.8034 189.747 92.1734L190.247 92.1933L190.746 92.2131C190.802 90.7965 190.76 89.3799 190.618 87.9635L190.121 88.0133ZM190.247 92.1933L189.747 92.1734C189.692 93.5664 189.635 94.9594 189.576 96.3523L190.076 96.3733L190.575 96.3942C190.634 95.0005 190.691 93.6068 190.746 92.2131L190.247 92.1933ZM190.076 96.3733L189.576 96.3523C189.518 97.7486 189.472 99.1449 189.438 100.541L189.938 100.553L190.438 100.565C190.471 99.175 190.517 97.7846 190.575 96.3942L190.076 96.3733ZM189.938 100.553L189.438 100.541C189.404 101.947 189.422 103.357 189.493 104.772L189.992 104.747L190.492 104.722C190.422 103.332 190.404 101.946 190.438 100.565L189.938 100.553ZM189.992 104.747L189.493 104.772C189.562 106.144 189.505 107.522 189.323 108.907L189.818 108.972L190.314 109.037C190.504 107.594 190.563 106.156 190.492 104.722L189.992 104.747ZM189.818 108.972L189.323 108.907C189.143 110.273 188.771 111.587 188.208 112.85L188.665 113.054L189.122 113.257C189.724 111.906 190.122 110.499 190.314 109.037L189.818 108.972ZM188.665 113.054L188.208 112.85C187.642 114.122 186.938 115.308 186.097 116.409L186.495 116.713L186.892 117.016C187.78 115.853 188.523 114.6 189.122 113.257L188.665 113.054ZM186.495 116.713L186.097 116.409C185.274 117.488 184.275 118.36 183.098 119.029L183.344 119.464L183.591 119.899C184.886 119.163 185.987 118.201 186.892 117.016L186.495 116.713ZM183.344 119.464L183.098 119.029C181.851 119.737 180.658 120.472 179.519 121.234L179.797 121.65L180.074 122.066C181.193 121.318 182.366 120.595 183.591 119.899L183.344 119.464ZM179.797 121.65L179.519 121.234C178.397 121.984 177.227 122.72 176.009 123.442L176.264 123.872L176.519 124.302C177.752 123.571 178.937 122.826 180.074 122.066L179.797 121.65ZM176.264 123.872L176.009 123.442C174.843 124.133 173.589 124.56 172.243 124.726L172.304 125.223L172.365 125.719C173.848 125.536 175.234 125.063 176.519 124.302L176.264 123.872ZM172.304 125.223L172.243 124.726C170.871 124.895 169.51 124.883 168.158 124.689L168.087 125.184L168.016 125.679C169.457 125.885 170.907 125.898 172.365 125.719L172.304 125.223ZM168.087 125.184L168.158 124.689C166.749 124.487 165.34 124.343 163.933 124.256L163.903 124.755L163.872 125.254C165.252 125.339 166.633 125.481 168.016 125.679L168.087 125.184ZM163.903 124.755L163.933 124.256C162.536 124.17 161.138 124.102 159.74 124.054L159.723 124.553L159.705 125.053C161.094 125.102 162.483 125.169 163.872 125.254L163.903 124.755ZM159.723 124.553L159.74 124.054C158.347 124.005 156.955 123.954 155.562 123.901L155.543 124.401L155.524 124.9C156.918 124.953 158.311 125.004 159.705 125.053L159.723 124.553ZM155.543 124.401L155.562 123.901C154.15 123.847 152.739 123.871 151.327 123.971L151.363 124.469L151.398 124.968C152.773 124.871 154.149 124.848 155.524 124.9L155.543 124.401ZM151.363 124.469L151.327 123.971C149.95 124.068 148.573 124.099 147.196 124.061L147.183 124.561L147.169 125.061C148.579 125.099 149.989 125.068 151.398 124.968L151.363 124.469ZM147.183 124.561L147.196 124.061C145.813 124.024 144.43 123.945 143.047 123.823L143.003 124.321L142.959 124.819C144.362 124.942 145.766 125.023 147.169 125.061L147.183 124.561ZM143.003 124.321L143.047 123.823C141.598 123.695 140.151 123.805 138.706 124.15L138.823 124.636L138.939 125.123C140.281 124.802 141.621 124.701 142.959 124.819L143.003 124.321ZM138.823 124.636L138.706 124.15C137.331 124.479 135.957 124.726 134.583 124.892L134.643 125.388L134.703 125.885C136.115 125.714 137.528 125.46 138.939 125.123L138.823 124.636ZM134.643 125.388L134.583 124.892C133.225 125.056 131.867 125.075 130.509 124.949L130.463 125.447L130.417 125.944C131.845 126.077 133.274 126.057 134.703 125.885L134.643 125.388ZM130.463 125.447L130.509 124.949C129.104 124.818 127.699 124.737 126.294 124.704L126.283 125.204L126.271 125.704C127.653 125.736 129.035 125.816 130.417 125.944L130.463 125.447ZM126.283 125.204L126.294 124.704C124.892 124.671 123.49 124.677 122.087 124.72L122.103 125.22L122.118 125.72C123.503 125.677 124.887 125.672 126.271 125.704L126.283 125.204ZM122.103 125.22L122.087 124.72C120.698 124.763 119.308 124.79 117.918 124.802L117.923 125.302L117.927 125.802C119.324 125.79 120.721 125.763 122.118 125.72L122.103 125.22ZM117.923 125.302L117.918 124.802C116.562 124.814 115.205 124.677 113.846 124.391L113.743 124.88L113.64 125.37C115.068 125.67 116.497 125.815 117.927 125.802L117.923 125.302ZM113.743 124.88L113.846 124.391C112.39 124.085 110.931 124.062 109.474 124.324L109.563 124.816L109.651 125.308C110.981 125.069 112.309 125.089 113.64 125.37L113.743 124.88ZM109.563 124.816L109.474 124.324C108.116 124.567 106.759 124.662 105.403 124.607L105.383 125.106L105.362 125.606C106.793 125.664 108.223 125.564 109.651 125.308L109.563 124.816ZM105.383 125.106L105.403 124.607C104.001 124.55 102.598 124.531 101.196 124.551L101.203 125.051L101.21 125.551C102.594 125.531 103.978 125.55 105.362 125.606L105.383 125.106ZM101.203 125.051L101.196 124.551C99.8093 124.571 98.423 124.562 97.0368 124.523L97.0228 125.023L97.0088 125.523C98.4091 125.562 99.8095 125.571 101.21 125.551L101.203 125.051ZM97.0228 125.023L97.0368 124.523C95.6622 124.484 94.2875 124.369 92.9124 124.175L92.8428 124.67L92.7731 125.165C94.1847 125.364 95.5966 125.483 97.0088 125.523L97.0228 125.023ZM92.8428 124.67L92.9124 124.175C91.4364 123.967 89.9629 124.122 88.4981 124.633L88.6628 125.105L88.8274 125.577C90.1493 125.116 91.4624 124.981 92.7731 125.165L92.8428 124.67ZM88.6628 125.105L88.4981 124.633C87.2173 125.079 85.9453 125.059 84.6608 124.57L84.4828 125.037L84.3047 125.504C85.8069 126.077 87.3215 126.102 88.8274 125.577L88.6628 125.105ZM84.4828 125.037L84.6608 124.57C83.2121 124.018 81.7554 123.752 80.2939 123.778L80.3028 124.278L80.3116 124.778C81.6368 124.754 82.9668 124.995 84.3047 125.504L84.4828 125.037ZM80.3028 124.278L80.2939 123.778C78.8752 123.803 77.4569 123.936 76.0392 124.176L76.1228 124.669L76.2064 125.162C77.5753 124.93 78.9437 124.802 80.3116 124.778L80.3028 124.278ZM76.1228 124.669L76.0392 124.176C74.6509 124.411 73.2626 124.625 71.8744 124.817L71.9428 125.312L72.0111 125.807C73.4096 125.614 74.808 125.399 76.2064 125.162L76.1228 124.669ZM71.9428 125.312L71.8744 124.817C70.5037 125.006 69.1335 125.099 67.7634 125.097L67.7628 125.597L67.7621 126.097C69.1787 126.099 70.5951 126.003 72.0111 125.807L71.9428 125.312ZM67.7628 125.597L67.7634 125.097C66.3661 125.096 64.9687 125.111 63.5714 125.142L63.5828 125.642L63.5942 126.142C64.9835 126.111 66.3728 126.096 67.7621 126.097L67.7628 125.597ZM63.5828 125.642L63.5714 125.142C62.2375 125.173 60.9004 124.97 59.558 124.532L59.4028 125.007L59.2475 125.482C60.6918 125.954 62.1414 126.175 63.5942 126.142L63.5828 125.642ZM59.4028 125.007L59.558 124.532C58.0981 124.055 56.6309 123.905 55.1614 124.086L55.2228 124.583L55.2841 125.079C56.6013 124.916 57.9208 125.049 59.2475 125.482L59.4028 125.007ZM55.2228 124.583L55.1614 124.086C53.8011 124.255 52.4413 124.286 51.0815 124.18L51.0428 124.678L51.004 125.177C52.4309 125.288 53.8577 125.255 55.2841 125.079L55.2228 124.583ZM51.0428 124.678L51.0815 124.18C49.657 124.069 48.2325 124.092 46.8082 124.248L46.8628 124.745L46.9173 125.242C48.2797 125.093 49.6418 125.071 51.004 125.177L51.0428 124.678ZM46.8628 124.745L46.8082 124.248C45.441 124.398 44.0742 124.44 42.7073 124.372L42.6828 124.872L42.6582 125.371C44.078 125.441 45.4978 125.398 46.9173 125.242L46.8628 124.745ZM42.6828 124.872L42.7073 124.372C41.2681 124.301 39.8299 124.427 38.3937 124.748L38.5028 125.236L38.6118 125.724C39.9623 125.422 41.3107 125.305 42.6582 125.371L42.6828 124.872ZM38.5028 125.236L38.3937 124.748C37.1021 125.036 35.8294 124.928 34.5623 124.416L34.375 124.88L34.1878 125.343C35.6377 125.929 37.1168 126.058 38.6118 125.724L38.5028 125.236ZM34.375 124.88L34.5623 124.416C33.1426 123.843 31.6845 123.572 30.1918 123.606L30.2033 124.106L30.2148 124.606C31.5675 124.575 32.8905 124.82 34.1878 125.343L34.375 124.88ZM30.2033 124.106L30.1918 123.606C28.862 123.637 27.6396 123.317 26.5133 122.645L26.2572 123.075L26.0011 123.504C27.291 124.273 28.6993 124.641 30.2148 124.606L30.2033 124.106ZM26.2572 123.075L26.5133 122.645C25.3261 121.937 24.2076 121.153 23.1575 120.292L22.8405 120.679L22.5235 121.065C23.6127 121.958 24.772 122.771 26.0011 123.504L26.2572 123.075ZM22.8405 120.679L23.1575 120.292C22.0831 119.411 20.9707 118.532 19.8204 117.655L19.5171 118.053L19.2139 118.45C20.3554 119.321 21.4586 120.192 22.5235 121.065L22.8405 120.679ZM19.5171 118.053L19.8204 117.655C18.7531 116.841 18.0084 115.806 17.5782 114.541L17.1048 114.702L16.6314 114.863C17.1258 116.317 17.9893 117.516 19.2139 118.45L19.5171 118.053ZM17.1048 114.702L17.5782 114.541C17.1193 113.191 16.712 111.852 16.3564 110.525L15.8734 110.654L15.3905 110.784C15.752 112.133 16.1657 113.493 16.6314 114.863L17.1048 114.702ZM15.8734 110.654L16.3564 110.525C16.0129 109.243 15.8989 107.943 16.0141 106.623L15.516 106.579L15.0179 106.536C14.8925 107.972 15.0168 109.389 15.3905 110.784L15.8734 110.654ZM15.516 106.579L16.0141 106.623C16.1399 105.182 15.9987 103.736 15.5937 102.287L15.1122 102.422L14.6306 102.557C15.0047 103.895 15.1327 105.22 15.0179 106.536L15.516 106.579ZM15.1122 102.422L15.5937 102.287C15.217 100.94 15.0458 99.596 15.0783 98.2541L14.5784 98.242L14.0786 98.2299C14.0437 99.6747 14.2283 101.117 14.6306 102.557L15.1122 102.422ZM14.5784 98.242L15.0783 98.2541C15.1115 96.8786 15.2184 95.503 15.3991 94.1271L14.9034 94.062L14.4076 93.9969C14.2223 95.4077 14.1126 96.8187 14.0786 98.2299L14.5784 98.242ZM14.9034 94.062L15.3991 94.1271C15.5834 92.724 15.7253 91.3207 15.8248 89.9174L15.326 89.882L14.8273 89.8466C14.7292 91.23 14.5893 92.6134 14.4076 93.9969L14.9034 94.062ZM15.326 89.882L15.8248 89.9174C15.925 88.5043 15.9411 87.0911 15.873 85.678L15.3736 85.702L14.8742 85.7261C14.9403 87.0996 14.9247 88.4731 14.8273 89.8466L15.326 89.882ZM15.3736 85.702L15.873 85.678C15.8051 84.269 15.6713 82.8603 15.4716 81.4518L14.9765 81.522L14.4815 81.5922C14.6769 82.9704 14.8078 84.3483 14.8742 85.7261L15.3736 85.702ZM14.9765 81.522L15.4716 81.4518C15.2759 80.072 15.1378 78.6923 15.0572 77.3129L14.558 77.342L14.0589 77.3712C14.1411 78.7783 14.2819 80.1854 14.4815 81.5922L14.9765 81.522ZM14.558 77.342L15.0572 77.3129C14.9758 75.9198 14.8957 74.5268 14.8167 73.1337L14.3175 73.162L13.8183 73.1903C13.8973 74.5839 13.9775 75.9775 14.0589 77.3712L14.558 77.342ZM14.3175 73.162L14.8167 73.1337C14.7414 71.8046 14.9164 70.4725 15.3455 69.1347L14.8693 68.982L14.3932 68.8293C13.9286 70.2782 13.7357 71.7328 13.8183 73.1903L14.3175 73.162ZM14.8693 68.982L15.3455 69.1347C15.8243 67.6415 15.822 66.1409 15.3387 64.648L14.863 64.802L14.3873 64.956C14.8062 66.2498 14.8081 67.5358 14.3932 68.8293L14.8693 68.982ZM14.863 64.802L15.3387 64.648C14.9073 63.3153 14.7517 61.9892 14.8677 60.6657L14.3697 60.622L13.8716 60.5784C13.7433 62.0415 13.9166 63.502 14.3873 64.956L14.863 64.802ZM14.3697 60.622L14.8677 60.6657C14.9913 59.2559 15.0449 57.8461 15.0283 56.4361L14.5284 56.442L14.0284 56.4479C14.0445 57.8246 13.9923 59.2014 13.8716 60.5784L14.3697 60.622ZM14.5284 56.442L15.0283 56.4361C15.0122 55.0628 15.0782 53.6893 15.2264 52.3156L14.7293 52.262L14.2322 52.2084C14.0798 53.6214 14.0118 55.0346 14.0284 56.4479L14.5284 56.442ZM14.7293 52.262L15.2264 52.3156C15.3801 50.8903 15.3957 49.4647 15.2732 48.0392L14.775 48.082L14.2768 48.1249C14.3939 49.486 14.379 50.847 14.2322 52.2084L14.7293 52.262ZM14.775 48.082L15.2732 48.0392C15.1567 46.6851 15.1997 45.3309 15.4022 43.9759L14.9077 43.902L14.4132 43.8281C14.1992 45.2598 14.1537 46.6923 14.2768 48.1249L14.775 48.082ZM14.9077 43.902L15.4022 43.9759C15.6168 42.5405 15.6464 41.1042 15.4907 39.6681L14.9936 39.722L14.4965 39.7759C14.6429 41.1265 14.6152 42.4769 14.4132 43.8281L14.9077 43.902ZM14.9936 39.722L15.4907 39.6681C15.3457 38.3306 15.4247 37.0034 15.7281 35.6843L15.2408 35.5722L14.7535 35.4601C14.4253 36.8874 14.3395 38.3268 14.4965 39.7759L14.9936 39.722ZM15.2408 35.5722L15.7281 35.6843C16.0583 34.2481 16.1114 32.7759 15.8898 31.271L15.3951 31.3438L14.9004 31.4167C15.1046 32.8031 15.0549 34.1498 14.7535 35.4601L15.2408 35.5722ZM15.3951 31.3438L15.8898 31.271C15.6983 29.971 16.0317 28.8468 16.902 27.8593L16.5269 27.5287L16.1518 27.1981C15.0872 28.406 14.6661 29.8252 14.9004 31.4167L15.3951 31.3438ZM16.5269 27.5287L16.902 27.8593C17.8856 26.7434 18.7427 25.6064 19.472 24.4481L19.0489 24.1816L18.6258 23.9152C17.9275 25.0243 17.1032 26.1187 16.1518 27.1981L16.5269 27.5287ZM19.0489 24.1816L19.472 24.4481C20.1953 23.2994 20.8927 22.0565 21.5647 20.7196L21.118 20.495L20.6712 20.2705C20.0122 21.5817 19.3303 22.7964 18.6258 23.9152L19.0489 24.1816ZM21.118 20.495L21.5647 20.7196C22.1858 19.484 23.0807 18.5538 24.2554 17.9153L24.0166 17.476L23.7778 17.0367C22.4187 17.7755 21.3812 18.858 20.6712 20.2705L21.118 20.495ZM24.0166 17.476L24.2554 17.9153C25.4799 17.2497 26.7643 16.7773 28.11 16.4972L28.0081 16.0077L27.9062 15.5182C26.4636 15.8185 25.0871 16.325 23.7778 17.0367L24.0166 17.476ZM28.0081 16.0077L28.11 16.4972C29.4642 16.2154 30.8115 16.1058 32.1528 16.1675L32.1758 15.668L32.1988 15.1686C30.7714 15.1029 29.3402 15.2197 27.9062 15.5182L28.0081 16.0077ZM32.1758 15.668L32.1528 16.1675C32.8559 16.1999 33.4328 16.1925 33.8706 16.138C34.0892 16.1108 34.2906 16.0699 34.4629 16.0076C34.6276 15.9481 34.817 15.8509 34.9507 15.6781L34.5553 15.372L34.1599 15.066C34.1927 15.0237 34.2071 15.0368 34.123 15.0672C34.0465 15.0948 33.9253 15.1235 33.7472 15.1457C33.3918 15.1899 32.88 15.1999 32.1988 15.1686L32.1758 15.668ZM34.5553 15.372L34.9507 15.6781C34.9284 15.707 34.9301 15.6879 35.0239 15.6456C35.1095 15.6071 35.2384 15.564 35.4205 15.5208C35.7842 15.4345 36.3038 15.3604 36.9904 15.3026L36.9484 14.8043L36.9064 14.3061C36.1996 14.3657 35.6237 14.4449 35.1897 14.5478C34.973 14.5992 34.7775 14.6598 34.6132 14.7338C34.4571 14.8041 34.2833 14.9066 34.1599 15.066L34.5553 15.372Z" fill="#5F8D29"/>
</g>
<defs>
<filter id="filter0_d_0_1" x="-0.000195503" y="4.86374e-05" width="204.831" height="139.945" filterUnits="userSpaceOnUse" color-interpolation-filters="sRGB">
<feFlood flood-opacity="0" result="BackgroundImageFix"/>
<feColorMatrix in="SourceAlpha" type="matrix" values="0 0 0 0 0 0 0 0 0 0 0 0 0 0 0 0 0 0 127 0" result="hardAlpha"/>
<feMorphology radius="2" operator="dilate" in="SourceAlpha" result="effect1_dropShadow_0_1"/>
<feOffset/>
<feGaussianBlur stdDeviation="5.9"/>
<feComposite in2="hardAlpha" operator="out"/>
<feColorMatrix type="matrix" values="0 0 0 0 0 0 0 0 0 0 0 0 0 0 0 0 0 0 0.04 0"/>
<feBlend mode="normal" in2="BackgroundImageFix" result="effect1_dropShadow_0_1"/>
<feBlend mode="normal" in="SourceGraphic" in2="effect1_dropShadow_0_1" result="shape"/>
</filter>
<filter id="filter1_d_0_1" x="1.0584" y="1.18047" width="202.6" height="137.6" filterUnits="userSpaceOnUse" color-interpolation-filters="sRGB">
<feFlood flood-opacity="0" result="BackgroundImageFix"/>
<feColorMatrix in="SourceAlpha" type="matrix" values="0 0 0 0 0 0 0 0 0 0 0 0 0 0 0 0 0 0 127 0" result="hardAlpha"/>
<feMorphology radius="2" operator="dilate" in="SourceAlpha" result="effect1_dropShadow_0_1"/>
<feOffset/>
<feGaussianBlur stdDeviation="5.9"/>
<feComposite in2="hardAlpha" operator="out"/>
<feColorMatrix type="matrix" values="0 0 0 0 0 0 0 0 0 0 0 0 0 0 0 0 0 0 0.04 0"/>
<feBlend mode="normal" in2="BackgroundImageFix" result="effect1_dropShadow_0_1"/>
<feBlend mode="normal" in="SourceGraphic" in2="effect1_dropShadow_0_1" result="shape"/>
</filter>
<filter id="filter2_f_0_1" x="107.99" y="87.0151" width="16.7202" height="13.5488" filterUnits="userSpaceOnUse" color-interpolation-filters="sRGB">
<feFlood flood-opacity="0" result="BackgroundImageFix"/>
<feBlend mode="normal" in="SourceGraphic" in2="BackgroundImageFix" result="shape"/>
<feGaussianBlur stdDeviation="1.5" result="effect1_foregroundBlur_0_1"/>
</filter>
<filter id="filter3_f_0_1" x="146.509" y="83.6426" width="16.7202" height="13.5488" filterUnits="userSpaceOnUse" color-interpolation-filters="sRGB">
<feFlood flood-opacity="0" result="BackgroundImageFix"/>
<feBlend mode="normal" in="SourceGraphic" in2="BackgroundImageFix" result="shape"/>
<feGaussianBlur stdDeviation="1.5" result="effect1_foregroundBlur_0_1"/>
</filter>
<clipPath id="clip0_0_1">
<path d="M14.8584 34.9805C14.8584 23.9348 23.8127 14.9805 34.8584 14.9805H169.858C180.904 14.9805 189.858 23.9348 189.858 34.9805V104.98C189.858 116.026 180.904 124.98 169.858 124.98H34.8584C23.8127 124.98 14.8584 116.026 14.8584 104.98V34.9805Z" fill="white"/>
</clipPath>
</defs>
</svg>
